<?xml version="1.0" encoding="utf-8"?>
<!-- Generator: Adobe Illustrator 16.0.3, SVG Export Plug-In . SVG Version: 6.00 Build 0)  -->
<!DOCTYPE svg PUBLIC "-//W3C//DTD SVG 1.1//EN" "http://www.w3.org/Graphics/SVG/1.1/DTD/svg11.dtd">
<svg version="1.1" id="Layer_1" xmlns="http://www.w3.org/2000/svg" xmlns:xlink="http://www.w3.org/1999/xlink" x="0px" y="0px"
	 width="91.908px" height="137.779px" viewBox="0 0.293 91.908 137.779" enable-background="new 0 0.293 91.908 137.779"
	 xml:space="preserve">
<g>
	<g>
		<path fill="#FFFFFF" d="M24.379,101.232V58.823c0-22.657,0.191-26.717-0.138-31.369c-0.319-4.934-1.577-7.261-6.965-8.276
			c-1.306-0.289-4.007-0.436-5.478-0.436c-0.651,0-1.271-0.288-1.271-0.871c0-0.871,0.833-1.161,2.625-1.161
			c7.349,0,17.145,0.435,18.45,0.435c3.595,0,13.066-0.435,20.566-0.435c20.403,0,27.748,6.099,30.356,8.275
			c3.095,2.628,6.912,7.845,7.912,14.158c0.942-8.672,1.472-17.993,1.472-28.004c-12.983,0-37.416-5.015-45.954-10.846
			C37.417,6.125,12.983,11.14,0,11.14c0,49.065,12.55,81.655,24.691,101.517C24.692,108.777,24.379,104.93,24.379,101.232z"/>
		<path fill="#FFFFFF" d="M50.551,76.83c-0.814,0-2.601,0-3.412-0.145c-0.813,0-1.771-0.289-1.771-1.018
			c0-1.161,1.025-1.305,4.448-1.305c15.829,0,28.336-10.313,28.336-23.673c0-4.79-0.299-14.525-8.948-22.364
			c-8.655-7.841-18.229-7.26-21.977-7.26c-2.779,0-5.192,0.293-6.657,0.873c-0.982,0.285-0.19,1.304-0.19,2.756v76.536
			c0,6.766-1.084,12.938-1.015,18.209c0,2.72-0.899,6.078-2.768,9.459c5.527,6.318,9.527,9.174,9.527,9.174
			s30.865-22.811,41.878-82.566C82.382,68.628,68.324,76.83,50.551,76.83z"/>
	</g>
</g>
</svg>
