<?xml version="1.0" encoding="utf-8"?>
<!-- Generator: Adobe Illustrator 16.0.3, SVG Export Plug-In . SVG Version: 6.00 Build 0)  -->
<!DOCTYPE svg PUBLIC "-//W3C//DTD SVG 1.1//EN" "http://www.w3.org/Graphics/SVG/1.1/DTD/svg11.dtd">
<svg version="1.1" id="Layer_2" xmlns="http://www.w3.org/2000/svg" xmlns:xlink="http://www.w3.org/1999/xlink" x="0px" y="0px"
	 width="398.787px" height="190.624px" viewBox="0 0 398.787 190.624" enable-background="new 0 0 398.787 190.624"
	 xml:space="preserve">
<g>
	<path fill="#FFFFFF" d="M136.148,46.621v-7.488c-4.837-4.04-7.879-10.075-7.879-16.792c0-2.385,0.447-4.799,1.368-7.379
		l0.642-1.802l-1.672-0.928C114.398,4.344,95.38,0,75.054,0C54.726,0,35.707,4.344,21.5,12.231l-1.67,0.927l0.64,1.801
		c0.92,2.591,1.368,5.006,1.368,7.382c0,11.25-8.494,20.633-19.758,21.827L0,44.388l0.062,2.09
		c1.219,40.984,16.031,73.953,28.242,94.395c13.601,22.769,31.554,42.097,45.735,49.24l1.015,0.511l1.015-0.512
		c14.181-7.143,32.133-26.471,45.734-49.239c9.666-16.182,20.955-40.22,25.848-69.864L136.148,46.621z"/>
	<g>
		<path fill="#00121E" d="M199.355,121.316c0.225-0.29,0.435-0.594,0.628-0.91c0.972-1.582,1.464-3.389,1.464-5.369
			c0-3.295-1.42-6.299-4.107-8.223c-2.451-1.752-5.866-2.885-10.15-2.885h-18.041v36h18.918c4.596,0,8.078-0.634,10.644-2.411
			c2.795-1.935,4.272-4.715,4.272-8.257c0-2.481-0.684-4.577-2.033-6.347C200.479,122.301,199.947,121.806,199.355,121.316z
			 M188.82,116.5c-0.207,0.141-0.867,0.43-2.51,0.43h-4.163v-2h4.163c1.661,0,2.324,0.38,2.537,0.521
			c0.103,0.067,0.176,0.127,0.176,0.504C189.023,116.352,188.942,116.417,188.82,116.5z M182.148,127.93h5.391
			c3.019,0,3.019,0.557,3.019,0.938c0,0.494-0.113,0.532-0.212,0.597c-0.235,0.15-0.978,0.465-2.807,0.465h-5.391V127.93z"/>
		<path fill="#00121E" d="M251.447,110.11c-1.758-2.031-3.949-3.599-6.512-4.658c-2.502-1.034-5.305-1.559-8.33-1.559
			c-3.635,0-6.971,0.79-9.91,2.345c-2.996,1.578-5.372,3.81-7.063,6.631c-1.688,2.815-2.546,6.023-2.546,9.535
			c0,3.514,0.857,6.722,2.546,9.536c1.689,2.814,4.046,5.044,7.004,6.624c2.917,1.561,6.227,2.353,9.838,2.353
			c2.475,0,4.963-0.379,7.395-1.125c2.473-0.758,4.508-1.871,6.417-3.31l0.863-0.792V118.93h-5.872l7.842-7.064L251.447,110.11z
			 M240.148,118.93v10.242c-1,0.279-2.035,0.416-3.082,0.416c-1.49,0-2.856-0.301-3.975-0.92c-1.084-0.6-1.955-1.41-2.563-2.479
			c-0.624-1.099-0.951-2.337-0.951-3.784c0-1.477,0.291-2.729,0.915-3.827c0.601-1.059,1.415-1.857,2.502-2.443
			c1.14-0.614,2.435-0.912,3.964-0.912c2.365,0,4.335,0.687,6.022,2.465l1.346,1.243H240.148z"/>
		<path fill="#00121E" d="M284.381,125.553c1.385-2.085,2.087-4.56,2.087-7.357c0-2.787-0.689-5.262-2.048-7.356
			c-1.354-2.088-3.289-3.956-5.752-5.071c-2.335-1.057-5.083-1.838-8.169-1.838h-16.352v36h13v-8h2.319l5.922,8h14.066
			l-8.129-11.424C282.542,127.618,283.564,126.784,284.381,125.553z M267.148,115.93h2.957c1.471,0,2.572,0.045,3.183,0.55
			c0.332,0.275,0.713,0.634,0.713,1.827c0,1.165-0.389,1.599-0.727,1.883c-0.61,0.514-1.706,0.74-3.169,0.74h-2.957V115.93z"/>
		<path fill="#00121E" d="M315.909,106.271c-2.92-1.577-6.232-2.378-9.847-2.378c-3.613,0-6.934,0.8-9.867,2.375
			c-2.968,1.594-5.33,3.829-7.021,6.644c-1.689,2.818-2.547,6.012-2.547,9.492c0,3.482,0.857,6.676,2.547,9.49
			c1.691,2.818,4.054,5.055,7.021,6.646c2.935,1.576,6.255,2.376,9.867,2.376s6.926-0.801,9.847-2.379
			c2.95-1.594,5.309-3.825,7.009-6.634c1.709-2.819,2.576-6.016,2.576-9.5c0-3.482-0.867-6.679-2.576-9.502
			C321.217,110.098,318.86,107.866,315.909,106.271z M306.062,129.588c-1.361,0-2.541-0.295-3.608-0.904
			c-1.045-0.595-1.844-1.405-2.444-2.48c-0.615-1.099-0.913-2.342-0.913-3.799c0-1.456,0.299-2.698,0.914-3.799
			c0.599-1.074,1.399-1.886,2.445-2.481c1.065-0.607,2.245-0.902,3.606-0.902c1.358,0,2.536,0.295,3.604,0.903
			c1.044,0.594,1.844,1.406,2.445,2.48c0.614,1.101,0.913,2.343,0.913,3.799c0,1.457-0.298,2.7-0.913,3.799
			c-0.602,1.076-1.4,1.887-2.448,2.482C308.598,129.293,307.42,129.588,306.062,129.588z"/>
		<path fill="#00121E" d="M348.148,123.983c0,2.131-0.533,3.688-1.254,4.508c-0.237,0.271-1.184,1.097-3.324,1.097
			c-2.033,0-4.422-0.433-4.422-5.604V103.93h-12v20.316c0,5.212,1.449,9.338,4.395,12.263c2.939,2.925,6.987,4.408,12.074,4.408
			c5.085,0,9.152-1.482,12.097-4.407c2.945-2.929,4.435-7.055,4.435-12.264V103.93h-12V123.983z"/>
		<path fill="#00121E" d="M387.718,105.768c-2.335-1.057-5.084-1.838-8.17-1.838h-16.4v36h13v-8h3.4
			c3.082,0,5.826-0.529,8.155-1.566c2.471-1.102,4.412-2.729,5.773-4.844c1.354-2.107,2.04-4.572,2.04-7.324
			c0-2.785-0.688-5.382-2.047-7.479C392.114,108.628,390.179,106.881,387.718,105.768z M376.148,115.93h3.007
			c1.472,0,2.573,0.045,3.183,0.549c0.331,0.275,0.712,0.634,0.712,1.828c0,1.154-0.381,1.598-0.71,1.871
			c-0.611,0.506-1.713,0.752-3.185,0.752h-3.007V115.93z"/>
		<path fill="#00121E" d="M257.969,89.141c0.588,0.676,1.561,1.199,3.103,1.199c1.351,0,2.923-0.069,4.553-0.146
			c0.921-0.001,1.789-0.027,2.5-0.049c0.452-0.014,0.835-0.026,1.113-0.026c1.409,0,3.538,0.121,6.401,0.363l1.823,0.111
			c2.05,0.129,4.17,0.262,6.057,0.262c13.938,0,21.128-5.687,23.554-8.113c4.992-4.893,7.856-11.937,7.856-19.326
			c0-7.017-2.443-13.325-6.869-17.752c-7.839-7.921-19.449-7.921-27.928-7.921c-2.304,0-4.888,0.051-6.963,0.093
			c-1.479,0.029-2.746,0.055-3.561,0.055c-0.768,0-1.938-0.026-3.287-0.057c-1.914-0.042-4.083-0.091-6.06-0.091
			c-3.913,0-4.111,2.688-4.111,3.226c0,1.641,1.287,3.302,3.745,3.302c0.956,0,1.688,0.081,1.851,0.12
			c0.448,0.128,0.678,0.224,0.787,0.278c0.028,0.107,0.292,0.313,0.316,0.671c0.074,1.937,0.298,3.648,0.298,13.145v11.04
			c0,5.647-0.224,10.524-0.498,13.006c-0.07,0.582-0.252,0.922-0.305,1.119c-0.357,0.059-0.876,0.088-1.438,0.088
			c-1.319,0-2.308,0.505-2.92,1.225c-0.587-0.719-1.524-1.225-2.789-1.225c-0.565,0-1.161-0.055-1.949-0.174
			c-0.896-0.168-2.242-2.101-3.592-5.152c-1.903-4.387-5.239-12.152-8.427-19.577c-3.719-8.661-7.231-16.841-8.094-18.771
			c-0.698-1.476-1.655-3.497-4.3-3.497c-2.626,0-3.704,2.582-4.334,4.091l-16.939,39.107c-1.279,3.054-1.889,3.674-3.168,3.902
			c-0.277,0.006-0.574,0.021-0.871,0.038c-0.192,0.011-0.374,0.017-0.558,0.022c0.288-2.065,0.47-4.232,0.47-4.783
			c0-3.922-2.898-4.036-3.229-4.036c-0.492,0-2.968,0.158-3.354,3.269c-0.102,0.822-0.604,1.944-0.909,2.256
			c-0.846,0.885-2.796,0.952-5.674,0.952c-4.953,0-6.269-0.409-6.696-0.646c-0.548-1.176-0.427-6.056-0.427-11.214v-11.04
			c0-9.458-0.122-11.162,0.018-13.07c0.032-0.481,0.018-0.77,0.055-0.936c0.052-0.011,0.087-0.024,0.167-0.038
			c0.491-0.099,1.311-0.17,1.97-0.17c3.012,0,3.808-2.075,3.808-3.302c0-0.539-0.198-3.226-4.039-3.226
			c-1.414,0-3.715,0.046-5.739,0.087c-1.554,0.032-2.942,0.06-3.613,0.06c-0.75,0-1.936-0.028-3.279-0.059
			c-1.81-0.042-3.898-0.089-5.628-0.089c-3.838,0-4.033,2.688-4.033,3.226c0,1.59,1.17,3.302,3.74,3.302
			c0.726,0,1.242,0.072,1.411,0.12c0.451,0.128,0.681,0.225,0.79,0.279c0.028,0.106,0.172,0.31,0.198,0.664
			c0.07,1.94,0.174,3.651,0.174,13.151v11.04c0,5.648-0.104,10.525-0.377,13.006c-0.07,0.582-0.191,0.923-0.244,1.119
			c-0.356,0.058-0.845,0.088-1.408,0.088c-1.185,0-2.102,0.404-2.718,1.008c-0.591-0.604-1.464-1.008-2.601-1.008
			c-0.558,0-1.168-0.057-1.944-0.174c-0.894-0.167-2.24-2.1-3.59-5.152c-1.935-4.459-5.348-12.407-8.582-19.941
			c-3.644-8.486-7.085-16.502-7.937-18.409c-0.7-1.475-1.659-3.495-4.298-3.495c-1.524,0-2.525,0.871-3.221,1.896
			c-3.856-4.267-6.215-9.899-6.215-16.122c0-2.869,0.586-5.579,1.499-8.137C114.265,6.851,95.685,2.256,75.054,2.256
			c-20.632,0-39.214,4.594-52.458,11.947c0.909,2.558,1.498,5.268,1.498,8.137c0,12.561-9.558,22.776-21.776,24.071
			c2.152,72.323,48.064,129.029,72.737,141.456c12.221-6.155,29.644-22.938,44.386-47.938h7.748l10.96-33.746v33.746h29v-11h-16v-1
			h14v-11h-14v-2h16v-11h-28.192h-0.577h-1.823c2.538-7,4.735-14.164,6.506-21.799l0.887,2.364
			c-0.754,0.669-1.057,1.665-1.057,2.483c0,2.886,3.073,3.1,4.083,3.161l0.396,0.038c5.483,0.147,10.229,0.155,12.509,0.155
			c1.374,0,3.37,0,4.521-1.019c0.6,0.584,1.514,1.024,2.912,1.024c1.352,0,2.923-0.068,4.552-0.146
			c0.921-0.001,1.79-0.027,2.5-0.048c0.453-0.014,0.835-0.026,1.114-0.026c2.219,0,4.488,0.054,7.114,0.115l1.375,0.031
			c3.274,0.149,7.118,0.222,11.75,0.222c2.012,0,3.631-0.095,4.834-0.904c0.564,0.438,1.387,0.758,2.6,0.758
			c2.409,0,4.852-0.109,6.312-0.174c0.588-0.026,1.012-0.047,1.196-0.047c0.965,0,2.219,0.054,3.431,0.107
			c1.302,0.056,2.647,0.114,3.781,0.114c2.895,0,3.667-1.979,3.667-3.204c0-1.591-1.125-3.206-3.594-3.206h-0.763
			c0.113-1,0.312-1.101,0.631-1.846l2.967-7.154h12.564l3.993,9.895c-0.754,0.669-1.057,1.5-1.057,2.318
			c0,2.887,3.075,3.019,4.086,3.079l0.395-0.003c5.48,0.147,10.227,0.134,12.508,0.134
			C254.717,90.353,256.855,90.333,257.969,89.141z M300.378,65.181c0,6.643-1.448,10.93-4.568,13.5
			c-3.131,2.601-6.735,3.662-12.441,3.662c-4.037,0-5.844-0.93-6.24-1.31c-0.083-0.294,0.016-1.08-0.079-3.131
			c-0.071-1.172,0.099-5.842,0.099-12.499V57.53c0-4.289-0.242-8.705-0.196-11.159c0.586-0.061,1.268-0.112,2.05-0.112
			c4.84,0,11.012,0.602,16.309,5.309C296.513,52.618,300.378,56.704,300.378,65.181z M227.078,58.862l2.754,7.068h-5.588
			L227.078,58.862z"/>
		<path fill="#00121E" d="M394.674,37.744c-2.185,0-4.002,0.068-5.205,0.113c-0.519,0.019-0.903,0.035-1.123,0.035
			c-0.532,0-1.371-0.022-2.392-0.049c-1.673-0.044-3.755-0.098-5.85-0.098c-3.845,0-4.26,2.256-4.26,3.226
			c0,1.59,1.148,3.302,3.67,3.302c0.479,0,1.938,0,2.446,0.196c0.083,0.032,0.131,0.055,0.145,0.057
			c0.077,0.141,0.322,0.763,0.365,3.059l0.513,21.511c-0.14-0.14-0.278-0.282-0.419-0.423c-3.012-3.052-6.76-6.85-9.227-9.277
			c-8.044-7.854-16.313-16.257-19.031-19.018l-1.138-1.152c-1.263-1.271-2.568-2.584-4.412-2.584c-1.805,0-3.747,1.494-3.746,4.731
			l-0.588,37.096c-0.018,1.275-0.056,4.095-0.316,5.124c-0.529,0.092-1.25,0.146-1.977,0.146c-1.513,0-2.778,0.788-3.346,1.94
			c-0.517-1.074-1.646-1.94-3.342-1.94c-0.871,0-2.186-0.069-2.91-0.188c-0.106-0.017-0.188-0.034-0.249-0.049
			c-0.029-0.111,0.056-0.292,0.018-0.577c-0.276-2.505-0.153-7.554-0.153-13.399v-11.04c0-9.457-0.123-11.161,0.019-13.072
			c0.031-0.48,0.017-0.768,0.053-0.933c0.053-0.011,0.087-0.024,0.169-0.038c0.65-0.13,0.96-0.17,1.378-0.17
			c2.537,0,3.665-1.694,3.665-3.374c0-0.323-0.115-3.154-3.97-3.154c-1.403,0-3.337,0.045-5.059,0.086
			c-1.342,0.032-2.553,0.061-3.26,0.061c-0.843,0-2.235-0.032-3.724-0.065c-1.758-0.04-3.647-0.082-4.961-0.082
			c-3.885,0-4.188,2.414-4.188,3.154c0,1.68,1.136,3.374,3.672,3.374c0.654,0,1.191,0.062,1.562,0.172
			c0.109,0.035,0.183,0.063,0.229,0.084c0.038,0.11,0.203,0.356,0.236,0.815c0.075,1.936,0.178,3.646,0.178,13.142v11.04
			c0,5.841-0.103,10.886-0.383,13.306c-0.046,0.388-0.143,0.644-0.178,0.809c-0.363,0.066-0.874,0.099-1.472,0.099
			c-2.41,0-3.684,1.661-3.684,3.302c0,1.226,0.813,3.3,3.885,3.3c1.513,0,3.574-0.072,5.396-0.135
			c1.305-0.045,2.448-0.086,3.063-0.086c0.674,0,1.742,0.034,3.044,0.074c2.124,0.065,4.767,0.147,7.404,0.147
			c1.874,0,3.018-0.847,3.543-1.897c0.428,0.924,1.438,1.897,3.807,1.897c2.393,0,4.647-0.111,5.995-0.177
			c0.489-0.024,0.838-0.043,0.997-0.044c0.382,0,0.972,0.026,1.743,0.059c1.531,0.064,3.845,0.162,6.644,0.162
			c3.914,0,4.112-2.749,4.112-3.3c0-1.641-1.286-3.302-3.743-3.302c-1.001,0-1.783-0.083-2.348-0.241
			c-0.15-0.303-0.517-1.343-0.608-4.407l-0.546-18.965c2.884,3.028,6.764,7.063,10.719,10.854
			c7.098,6.866,15.041,14.44,18.918,18.036c1.377,1.367,2.884,2.06,4.479,2.06c1.767,0,3.669-1.447,3.668-4.575l0.735-39.439
			c0.037-1.79,0.199-2.412,0.282-2.616c0.031-0.013,0.074-0.028,0.128-0.044c0.472-0.128,0.713-0.128,1.296-0.128
			c2.456,0,3.742-1.661,3.742-3.302C398.787,40.213,398.49,37.744,394.674,37.744z"/>
	</g>
	<g>
		<g>
			<path fill="#FFFFFF" d="M135.316,107.058l-10.042,30.694h-7.631l-6.751-20.785l-6.972,20.785h-7.586L86.25,107.058h7.366
				l6.928,21.573l7.236-21.573h6.578l7.016,21.749l7.146-21.749H135.316z"/>
		</g>
		<g>
			<path fill="#FFFFFF" d="M164.781,132.051v5.701h-23.765v-30.694h23.196v5.7h-16.137v6.664h14.251v5.525h-14.251v7.104H164.781z"
				/>
		</g>
		<g>
			<path fill="#FFFFFF" d="M198.853,124.575c0.992,1.301,1.49,2.9,1.49,4.802c0,2.689-1.045,4.756-3.135,6.203
				c-2.09,1.447-5.139,2.172-9.142,2.172h-15.873v-30.694h14.996c3.741,0,6.612,0.716,8.616,2.148
				c2.001,1.433,3.003,3.377,3.003,5.831c0,1.492-0.357,2.822-1.074,3.99c-0.717,1.17-1.718,2.09-3.004,2.762
				C196.482,122.346,197.857,123.273,198.853,124.575z M179.252,112.408v7.234h7.059c1.755,0,3.085-0.309,3.99-0.922
				c0.907-0.615,1.361-1.518,1.361-2.719c0-1.197-0.454-2.097-1.361-2.695c-0.905-0.6-2.235-0.898-3.99-0.898H179.252z
				 M191.771,131.482c0.948-0.615,1.424-1.564,1.424-2.852c0-2.543-1.884-3.814-5.657-3.814h-8.287v7.586h8.287
				C189.41,132.402,190.819,132.094,191.771,131.482z"/>
		</g>
		<g>
			<path fill="#FFFFFF" d="M242.393,121.922h6.491v12.453c-1.667,1.256-3.598,2.223-5.79,2.895c-2.192,0.673-4.4,1.009-6.621,1.009
				c-3.187,0-6.051-0.68-8.593-2.04c-2.545-1.359-4.541-3.246-5.986-5.655c-1.447-2.411-2.17-5.138-2.17-8.179
				c0-3.039,0.723-5.766,2.17-8.178c1.445-2.412,3.455-4.298,6.03-5.654c2.572-1.36,5.466-2.04,8.681-2.04
				c2.689,0,5.13,0.452,7.322,1.358c2.193,0.906,4.033,2.223,5.524,3.946l-4.56,4.21c-2.191-2.309-4.839-3.464-7.937-3.464
				c-1.958,0-3.698,0.409-5.218,1.228c-1.52,0.819-2.705,1.973-3.552,3.463c-0.847,1.492-1.271,3.202-1.271,5.131
				c0,1.9,0.425,3.596,1.271,5.087s2.025,2.653,3.529,3.485c1.506,0.834,3.224,1.25,5.153,1.25c2.046,0,3.887-0.438,5.524-1.315
				V121.922z"/>
		</g>
		<g>
			<path fill="#FFFFFF" d="M276.771,137.752l-5.922-8.551h-0.35h-6.184v8.551h-7.102v-30.694H270.5c2.72,0,5.079,0.452,7.08,1.358
				c2.003,0.906,3.547,2.192,4.627,3.858c1.082,1.668,1.623,3.64,1.623,5.921c0,2.28-0.549,4.246-1.646,5.897
				c-1.096,1.651-2.651,2.915-4.668,3.792l6.883,9.867H276.771z M274.972,114.227c-1.111-0.92-2.734-1.381-4.867-1.381h-5.789
				v10.699h5.789c2.133,0,3.756-0.469,4.867-1.403c1.11-0.936,1.667-2.251,1.667-3.946
				C276.639,116.47,276.083,115.147,274.972,114.227z"/>
		</g>
		<g>
			<path fill="#FFFFFF" d="M297.443,136.217c-2.559-1.373-4.559-3.268-6.006-5.68c-1.447-2.41-2.171-5.121-2.171-8.133
				c0-3.011,0.724-5.722,2.171-8.135c1.447-2.41,3.447-4.303,6.006-5.677s5.432-2.061,8.619-2.061c3.184,0,6.05,0.687,8.593,2.061
				c2.542,1.374,4.546,3.267,6.007,5.677c1.461,2.413,2.193,5.124,2.193,8.135c0,3.012-0.732,5.723-2.193,8.133
				c-1.461,2.412-3.465,4.307-6.007,5.68c-2.543,1.374-5.409,2.062-8.593,2.062C302.875,138.278,300.001,137.591,297.443,136.217z
				 M310.97,130.977c1.464-0.832,2.609-1.994,3.443-3.485s1.249-3.187,1.249-5.087c0-1.898-0.415-3.594-1.249-5.086
				c-0.834-1.491-1.979-2.653-3.443-3.486c-1.461-0.833-3.098-1.249-4.908-1.249c-1.814,0-3.452,0.416-4.913,1.249
				c-1.462,0.833-2.609,1.995-3.442,3.486c-0.834,1.492-1.249,3.188-1.249,5.086c0,1.9,0.415,3.596,1.249,5.087
				c0.833,1.491,1.98,2.653,3.442,3.485c1.461,0.834,3.099,1.25,4.913,1.25C307.873,132.227,309.509,131.811,310.97,130.977z"/>
		</g>
		<g>
			<path fill="#FFFFFF" d="M333.357,134.639c-2.443-2.426-3.663-5.889-3.663-10.393v-17.188h7.104v16.926
				c0,5.497,2.28,8.243,6.84,8.243c2.221,0,3.917-0.663,5.086-1.995c1.17-1.33,1.756-3.413,1.756-6.248v-16.926h7.014v17.188
				c0,4.504-1.221,7.967-3.66,10.393c-2.443,2.427-5.854,3.64-10.24,3.64C339.208,138.278,335.796,137.065,333.357,134.639z"/>
		</g>
		<g>
			<path fill="#FFFFFF" d="M386.63,108.416c2.002,0.906,3.545,2.192,4.627,3.858c1.08,1.668,1.621,3.64,1.621,5.921
				c0,2.252-0.541,4.216-1.621,5.897c-1.082,1.681-2.625,2.967-4.627,3.858c-2.002,0.893-4.363,1.337-7.082,1.337h-6.18v8.464
				h-7.105v-30.694h13.285C382.267,107.058,384.628,107.51,386.63,108.416z M384.023,122.119c1.108-0.921,1.665-2.229,1.665-3.924
				c0-1.726-0.557-3.048-1.665-3.969c-1.112-0.92-2.735-1.381-4.868-1.381h-5.786v10.655h5.786
				C381.288,123.501,382.911,123.041,384.023,122.119z"/>
		</g>
	</g>
	<g>
		<g>
			<path fill="#FFFFFF" d="M126.028,71.879c-0.366,0-0.443,0.073-0.591,0.44l-3.457,8.465c-0.663,1.544-0.956,3.091-0.956,3.827
				c0,1.103,0.587,1.765,2.575,1.765h0.957c0.809,0,0.955,0.296,0.955,0.664c0,0.516-0.366,0.662-1.028,0.662
				c-2.136,0-5.151-0.221-7.211-0.221c-0.664,0-4.121,0.221-7.507,0.221c-0.811,0-1.177-0.146-1.177-0.662
				c0-0.368,0.22-0.664,0.736-0.664c0.588,0,1.322-0.073,1.911-0.073c2.944-0.44,4.048-2.355,5.373-5.519l16.927-39.077
				c0.737-1.766,1.25-2.502,1.914-2.502c0.955,0,1.25,0.588,1.915,1.987c1.541,3.458,12.36,28.773,16.481,38.27
				c2.505,5.664,4.343,6.474,5.522,6.695c0.956,0.146,1.693,0.219,2.428,0.219c0.586,0,0.882,0.224,0.882,0.664
				c0,0.516-0.368,0.662-2.797,0.662c-2.282,0-6.991,0-12.438-0.146c-1.174-0.075-1.912-0.075-1.912-0.516
				c0-0.368,0.148-0.589,0.81-0.664c0.444-0.073,0.883-0.662,0.589-1.396l-5.006-12.661c-0.146-0.367-0.366-0.44-0.663-0.44H126.028
				z M139.865,68.421c0.292,0,0.365-0.147,0.292-0.368l-6.108-15.675c-0.073-0.221-0.147-0.591-0.294-0.591
				c-0.219,0-0.292,0.37-0.369,0.591l-6.254,15.599c-0.148,0.296,0,0.444,0.222,0.444H139.865z"/>
		</g>
		<g>
			<path fill="#FFFFFF" d="M180.267,69.524c0,8.022,0,11.996,1.395,13.173c1.105,0.957,3.608,1.325,8.609,1.325
				c3.461,0,5.963-0.075,7.581-1.766c0.813-0.811,1.474-2.577,1.62-3.753c0.073-0.589,0.221-0.957,0.736-0.957
				c0.443,0,0.59,0.661,0.59,1.397c0,0.735-0.444,5.373-0.961,7.212c-0.439,1.398-0.732,1.691-4.119,1.691
				c-4.638,0-8.386-0.071-11.629-0.219c-3.236-0.074-5.958-0.148-8.609-0.148c-0.733,0-2.133,0.075-3.679,0.075
				c-1.544,0.074-3.162,0.146-4.488,0.146c-0.81,0-1.252-0.221-1.252-0.662c0-0.294,0.222-0.664,1.033-0.664
				c0.956,0,1.691-0.073,2.281-0.219c1.322-0.294,1.692-1.472,1.913-3.312c0.292-2.651,0.292-7.581,0.292-13.321v-11.04
				c0-9.492,0-11.258-0.071-13.246c-0.148-2.135-0.737-2.797-2.796-3.385c-0.517-0.147-1.325-0.221-2.134-0.221
				c-0.736,0-1.102-0.22-1.102-0.664c0-0.44,0.44-0.588,1.394-0.588c3.02,0,7.143,0.147,8.907,0.147
				c1.547,0,6.846-0.147,9.349-0.147c0.955,0,1.396,0.147,1.396,0.588c0,0.444-0.369,0.664-1.177,0.664
				c-0.737,0-1.767,0.074-2.503,0.221c-1.765,0.294-2.281,1.178-2.428,3.385c-0.146,1.987-0.146,3.753-0.146,13.246V69.524z"/>
		</g>
		<g>
			<path fill="#FFFFFF" d="M219.417,71.879c-0.366,0-0.441,0.073-0.59,0.44l-3.457,8.465c-0.663,1.544-0.957,3.091-0.957,3.827
				c0,1.103,0.588,1.765,2.575,1.765h0.956c0.809,0,0.955,0.296,0.955,0.664c0,0.516-0.365,0.662-1.028,0.662
				c-2.136,0-5.149-0.221-7.212-0.221c-0.662,0-4.119,0.221-7.508,0.221c-0.809,0-1.176-0.146-1.176-0.662
				c0-0.368,0.221-0.664,0.736-0.664c0.59,0,1.324-0.073,1.912-0.073c2.944-0.44,4.048-2.355,5.373-5.519l16.927-39.077
				c0.737-1.766,1.251-2.502,1.913-2.502c0.955,0,1.252,0.588,1.914,1.987c1.543,3.458,12.362,28.773,16.482,38.27
				c2.504,5.664,4.344,6.474,5.521,6.695c0.957,0.146,1.691,0.219,2.43,0.219c0.587,0,0.883,0.224,0.883,0.664
				c0,0.516-0.371,0.662-2.799,0.662c-2.282,0-6.992,0-12.437-0.146c-1.179-0.075-1.913-0.075-1.913-0.516
				c0-0.368,0.146-0.589,0.811-0.664c0.441-0.073,0.883-0.662,0.588-1.396l-5.006-12.661c-0.145-0.367-0.366-0.44-0.662-0.44
				H219.417z M233.255,68.421c0.293,0,0.365-0.147,0.293-0.368l-6.109-15.675c-0.074-0.221-0.146-0.591-0.295-0.591
				c-0.22,0-0.291,0.37-0.368,0.591l-6.255,15.599c-0.146,0.296,0,0.444,0.221,0.444H233.255z"/>
		</g>
		<g>
			<path fill="#FFFFFF" d="M265.339,58.485c0-9.492,0-11.258-0.076-13.246c-0.146-2.135-0.734-2.797-2.793-3.385
				c-0.517-0.147-1.618-0.221-2.574-0.221c-0.664,0-1.106-0.22-1.106-0.664c0-0.44,0.517-0.588,1.473-0.588
				c3.383,0,7.507,0.147,9.347,0.147c1.984,0,6.621-0.147,10.523-0.147c8.096,0,18.988,0,26.053,7.139
				c3.237,3.238,6.105,8.463,6.105,15.896c0,7.875-3.385,13.835-7.064,17.441c-2.943,2.944-9.787,7.359-21.707,7.359
				c-2.355,0-5.154-0.221-7.729-0.369c-2.574-0.219-4.931-0.368-6.553-0.368c-0.732,0-2.132,0.075-3.677,0.075
				c-1.546,0.074-3.164,0.146-4.489,0.146c-0.81,0-1.252-0.221-1.252-0.662c0-0.294,0.223-0.664,1.032-0.664
				c0.956,0,1.689-0.073,2.28-0.219c1.322-0.294,1.692-1.472,1.913-3.312c0.294-2.651,0.294-7.581,0.294-13.321V58.485z
				 M274.025,65.403c0,6.625,0.072,11.407,0.148,12.659c0.071,1.545,0.219,3.753,0.734,4.415c0.809,1.179,3.385,2.504,8.461,2.504
				c5.889,0,10.229-1.032,14.127-4.271c4.199-3.458,5.521-9.051,5.521-15.529c0-7.946-3.164-13.097-6.032-15.601
				c-5.962-5.297-13.027-5.959-18.104-5.959c-1.324,0-3.459,0.147-3.973,0.439c-0.59,0.223-0.811,0.517-0.811,1.253
				c-0.072,2.135-0.072,7.286-0.072,12.217V65.403z"/>
		</g>
		<g>
			<path fill="#FFFFFF" d="M320.582,58.485c0-9.492,0-11.258-0.078-13.246c-0.146-2.135-0.809-2.87-2.205-3.311
				c-0.736-0.221-1.547-0.295-2.355-0.295c-0.662,0-1.033-0.146-1.033-0.736c0-0.368,0.518-0.516,1.549-0.516
				c2.428,0,6.844,0.147,8.684,0.147c1.617,0,5.814-0.147,8.315-0.147c0.81,0,1.327,0.147,1.327,0.516
				c0,0.589-0.371,0.736-1.034,0.736s-1.175,0.074-1.911,0.221c-1.766,0.294-2.283,1.178-2.429,3.385
				c-0.147,1.987-0.147,3.753-0.147,13.246v11.04c0,6.036,0,11.039,0.293,13.689c0.222,1.691,0.663,2.649,2.576,2.943
				c0.883,0.146,2.355,0.219,3.311,0.219c0.736,0,1.032,0.369,1.032,0.664c0,0.441-0.516,0.662-1.251,0.662
				c-4.268,0-8.683-0.221-10.45-0.221c-1.472,0-5.888,0.221-8.464,0.221c-0.809,0-1.252-0.221-1.252-0.662
				c0-0.294,0.223-0.664,1.032-0.664c0.956,0,1.692-0.073,2.28-0.219c1.324-0.294,1.695-1.176,1.912-3.019
				c0.299-2.575,0.299-7.578,0.299-13.614V58.485z"/>
		</g>
		<g>
			<path fill="#FFFFFF" d="M352.729,79.167c0.146,4.856,0.956,6.328,2.205,6.769c1.106,0.368,2.356,0.44,3.388,0.44
				c0.735,0,1.104,0.296,1.104,0.664c0,0.516-0.592,0.662-1.474,0.662c-4.194,0-7.212-0.221-8.387-0.221
				c-0.59,0-3.682,0.221-6.992,0.221c-0.884,0-1.473-0.073-1.473-0.662c0-0.368,0.441-0.664,1.029-0.664
				c0.883,0,2.063-0.073,2.945-0.293c1.691-0.442,1.911-2.135,1.985-7.58l0.588-37.09c0-1.255,0.444-2.135,1.108-2.135
				c0.809,0,1.691,0.957,2.793,2.059c0.809,0.811,10.525,10.746,19.944,19.944c4.413,4.341,13.026,13.173,13.98,14.056h0.296
				l-0.662-27.817c-0.072-3.827-0.662-4.929-2.208-5.518c-0.956-0.369-2.502-0.369-3.386-0.369c-0.809,0-1.031-0.295-1.031-0.664
				c0-0.515,0.663-0.588,1.621-0.588c3.385,0,6.842,0.147,8.241,0.147c0.735,0,3.163-0.147,6.328-0.147
				c0.882,0,1.474,0.073,1.474,0.588c0,0.368-0.366,0.664-1.104,0.664c-0.662,0-1.178,0-1.989,0.221
				c-1.763,0.515-2.28,1.619-2.354,5.15l-0.735,39.445c0,1.398-0.518,1.986-1.03,1.986c-1.105,0-1.988-0.66-2.649-1.323
				c-4.048-3.753-12.143-11.48-18.913-18.03c-7.064-6.772-13.908-14.349-15.159-15.455h-0.22L352.729,79.167z"/>
		</g>
		<g>
			<path fill="#FFFFFF" d="M106.772,42.173c-2.251-2.109-8.576-8.014-26.155-8.014c-6.464,0-14.622,0.421-17.714,0.421
				c-1.127,0-9.562-0.421-15.892-0.421c-1.545,0-2.248,0.281-2.248,1.125c0,0.563,0.563,0.844,1.125,0.844
				c1.268,0,3.657,0.14,4.782,0.421c4.641,0.984,5.843,3.234,6.121,8.014c0.283,4.5,0.357,8.437,0.357,30.373v41.063
				c0,13.5,0.456,29.076-2.166,40.65c8.131-4.436,14.948-15.959,14.948-23.021c-0.062-5.104,1.218-11.08,1.218-17.63V41.891
				c0-1.406-1.029-2.39-0.183-2.67c1.266-0.562,2.996-0.844,5.39-0.844c3.231,0,11.481-0.563,18.934,7.03
				C102.743,53,103,62.422,103,67.061c0,12.936-10.772,22.92-24.413,22.92c-2.949,0-3.833,0.141-3.833,1.264
				c0,0.704,0.824,0.984,1.525,0.984c0.703,0.142,2.239,0.142,2.943,0.142c19.968,0,34.588-13.499,34.588-33.465
				C113.809,51.455,109.865,45.126,106.772,42.173z"/>
		</g>
	</g>
</g>
</svg>
