<?xml version="1.0" encoding="utf-8"?>
<!-- Generator: Adobe Illustrator 16.0.3, SVG Export Plug-In . SVG Version: 6.00 Build 0)  -->
<!DOCTYPE svg PUBLIC "-//W3C//DTD SVG 1.1//EN" "http://www.w3.org/Graphics/SVG/1.1/DTD/svg11.dtd">
<svg version="1.1" id="Layer_1" xmlns="http://www.w3.org/2000/svg" xmlns:xlink="http://www.w3.org/1999/xlink" x="0px" y="0px"
	 width="400px" height="138px" viewBox="0 0 400 138" enable-background="new 0 0 400 138" xml:space="preserve">
<g>
	<g>
		<path fill="#FFFFFF" d="M110.487,60.267c-0.315,0-0.441,0.126-0.568,0.505l-3.408,8.648c-0.632,1.578-0.947,3.093-0.947,3.851
			c0,1.136,0.568,1.957,2.524,1.957h0.947c0.758,0,0.947,0.125,0.947,0.504c0,0.505-0.379,0.631-1.073,0.631
			c-2.02,0-4.734-0.189-6.69-0.189c-0.695,0-4.167,0.189-7.449,0.189c-0.82,0-1.199-0.126-1.199-0.631
			c0-0.379,0.252-0.504,0.758-0.504c0.568,0,1.451-0.063,1.957-0.127c2.903-0.378,4.103-2.524,5.364-5.681l15.845-39.136
			c0.757-1.831,1.136-2.525,1.768-2.525c0.567,0,0.946,0.568,1.578,2.02c1.515,3.472,11.614,28.72,15.654,38.315
			c2.397,5.681,4.229,6.564,5.555,6.88c0.947,0.189,1.893,0.253,2.651,0.253c0.505,0,0.82,0.063,0.82,0.504
			c0,0.505-0.568,0.631-2.904,0.631c-2.271,0-6.88,0-11.931-0.126c-1.135-0.063-1.893-0.063-1.893-0.505
			c0-0.379,0.252-0.504,0.883-0.568c0.442-0.126,0.885-0.695,0.569-1.452l-5.05-13.003c-0.127-0.316-0.316-0.442-0.632-0.442
			H110.487z M123.364,57.111c0.316,0,0.378-0.189,0.316-0.379l-5.682-15.528c-0.063-0.252-0.126-0.567-0.315-0.567
			s-0.315,0.315-0.379,0.567l-5.808,15.465c-0.063,0.253,0,0.442,0.253,0.442H123.364z"/>
		<path fill="#FFFFFF" d="M166.344,58.058c0,8.08,0,12.435,1.326,13.572c1.073,0.947,2.714,1.388,7.639,1.388
			c3.345,0,5.807-0.063,7.385-1.767c0.757-0.821,1.514-2.588,1.641-3.788c0.063-0.567,0.189-0.947,0.694-0.947
			c0.442,0,0.505,0.316,0.505,1.073c0,0.694-0.441,5.429-0.946,7.259c-0.38,1.389-0.694,1.704-3.977,1.704
			c-4.545,0-7.827-0.126-10.668-0.189c-2.841-0.126-5.113-0.189-7.701-0.189c-0.694,0-2.082,0-3.598,0.063
			c-1.452,0-3.094,0.126-4.355,0.126c-0.821,0-1.263-0.189-1.263-0.631c0-0.316,0.253-0.504,1.01-0.504
			c0.947,0,1.704-0.127,2.272-0.253c1.263-0.252,1.578-1.641,1.831-3.472c0.315-2.651,0.315-7.638,0.315-13.445V46.949
			c0-9.595,0-11.362-0.126-13.382c-0.127-2.146-0.632-3.157-2.714-3.598c-0.505-0.126-1.264-0.189-2.084-0.189
			c-0.694,0-1.072-0.126-1.072-0.568c0-0.442,0.44-0.569,1.388-0.569c2.968,0,6.943,0.189,8.648,0.189
			c1.514,0,6.122-0.189,8.584-0.189c0.885,0,1.325,0.126,1.325,0.569c0,0.441-0.378,0.568-1.135,0.568
			c-0.694,0-1.705,0.063-2.463,0.189c-1.704,0.315-2.209,1.389-2.335,3.598c-0.127,2.02-0.127,3.787-0.127,13.382V58.058z"/>
		<path fill="#FFFFFF" d="M206.735,60.267c-0.314,0-0.44,0.126-0.567,0.505l-3.408,8.648c-0.632,1.578-0.947,3.093-0.947,3.851
			c0,1.136,0.568,1.957,2.524,1.957h0.947c0.758,0,0.947,0.125,0.947,0.504c0,0.505-0.38,0.631-1.073,0.631
			c-2.021,0-4.734-0.189-6.691-0.189c-0.694,0-4.165,0.189-7.448,0.189c-0.82,0-1.199-0.126-1.199-0.631
			c0-0.379,0.253-0.504,0.757-0.504c0.569,0,1.452-0.063,1.958-0.127c2.902-0.378,4.102-2.524,5.365-5.681l15.843-39.136
			c0.759-1.831,1.137-2.525,1.768-2.525c0.569,0,0.946,0.568,1.578,2.02c1.516,3.472,11.614,28.72,15.654,38.315
			c2.399,5.681,4.229,6.564,5.556,6.88c0.947,0.189,1.894,0.253,2.651,0.253c0.505,0,0.821,0.063,0.821,0.504
			c0,0.505-0.57,0.631-2.905,0.631c-2.272,0-6.88,0-11.931-0.126c-1.135-0.063-1.894-0.063-1.894-0.505
			c0-0.379,0.253-0.504,0.884-0.568c0.442-0.126,0.884-0.695,0.568-1.452l-5.05-13.003c-0.126-0.316-0.315-0.442-0.631-0.442
			H206.735z M219.613,57.111c0.315,0,0.378-0.189,0.315-0.379l-5.682-15.528c-0.062-0.252-0.126-0.567-0.315-0.567
			s-0.316,0.315-0.378,0.567l-5.809,15.465c-0.063,0.253,0,0.442,0.253,0.442H219.613z"/>
		<path fill="#FFFFFF" d="M254.703,46.949c0-9.595,0-11.362-0.126-13.382c-0.127-2.146-0.632-3.157-2.715-3.598
			c-0.505-0.126-1.579-0.189-2.462-0.189c-0.694,0-1.072-0.126-1.072-0.568c0-0.442,0.44-0.569,1.388-0.569
			c3.346,0,7.322,0.189,9.09,0.189c1.958,0,5.934-0.189,9.722-0.189c7.89,0,18.431,0,25.312,7.196
			c3.156,3.282,6.123,8.521,6.123,16.033c0,7.954-3.347,14.013-6.88,17.611c-2.904,2.967-9.469,7.449-21.146,7.449
			c-2.273,0-4.86-0.189-7.26-0.379c-2.398-0.189-4.608-0.378-6.186-0.378c-0.694,0-2.082,0-3.598,0.063
			c-1.452,0-3.094,0.126-4.355,0.126c-0.821,0-1.263-0.189-1.263-0.631c0-0.316,0.253-0.504,1.009-0.504
			c0.947,0,1.705-0.127,2.273-0.253c1.262-0.252,1.578-1.641,1.831-3.472c0.315-2.651,0.315-7.638,0.315-13.445V46.949z
			 M262.593,53.892c0,6.691,0.064,11.551,0.127,12.75c0.063,1.578,0.188,4.104,0.693,4.798c0.821,1.199,3.283,2.525,8.27,2.525
			c6.438,0,10.731-1.263,14.52-4.545c4.039-3.472,5.302-9.216,5.302-15.718c0-8.017-3.347-13.193-6.061-15.78
			c-5.807-5.555-13.002-6.313-17.927-6.313c-1.263,0-3.598,0.19-4.104,0.442c-0.567,0.253-0.756,0.568-0.756,1.263
			c-0.064,2.146-0.064,7.638-0.064,12.625V53.892z"/>
		<path fill="#FFFFFF" d="M319.46,46.949c0-9.595,0-11.362-0.126-13.382c-0.127-2.146-0.759-3.22-2.146-3.535
			c-0.694-0.189-1.516-0.252-2.273-0.252c-0.63,0-1.01-0.126-1.01-0.631c0-0.379,0.505-0.505,1.516-0.505
			c2.399,0,6.375,0.189,8.205,0.189c1.579,0,5.303-0.189,7.701-0.189c0.821,0,1.326,0.126,1.326,0.505
			c0,0.505-0.379,0.631-1.011,0.631s-1.136,0.063-1.894,0.189c-1.704,0.315-2.209,1.389-2.335,3.598
			c-0.127,2.02-0.127,3.787-0.127,13.382v11.109c0,6.123,0,11.109,0.253,13.824c0.189,1.704,0.632,2.841,2.523,3.093
			c0.886,0.126,2.273,0.253,3.221,0.253c0.694,0,1.011,0.188,1.011,0.504c0,0.442-0.505,0.631-1.199,0.631
			c-4.167,0-8.144-0.189-9.849-0.189c-1.451,0-5.427,0.189-7.952,0.189c-0.821,0-1.263-0.189-1.263-0.631
			c0-0.316,0.253-0.504,1.009-0.504c0.947,0,1.705-0.127,2.273-0.253c1.262-0.252,1.641-1.326,1.83-3.157
			c0.316-2.651,0.316-7.637,0.316-13.76V46.949z"/>
		<path fill="#FFFFFF" d="M357.834,67.779c0.125,4.924,0.946,6.564,2.21,7.007c1.071,0.379,2.271,0.442,3.281,0.442
			c0.694,0,1.073,0.125,1.073,0.504c0,0.505-0.567,0.631-1.452,0.631c-4.103,0-6.628-0.189-7.828-0.189
			c-0.567,0-3.534,0.189-6.816,0.189c-0.82,0-1.388-0.063-1.388-0.631c0-0.379,0.378-0.504,1.01-0.504
			c0.821,0,1.956-0.063,2.84-0.316c1.641-0.505,1.894-2.335,1.957-7.827l0.567-37.18c0-1.263,0.19-2.146,0.821-2.146
			c0.694,0,1.263,0.82,2.335,1.957c0.759,0.821,10.353,10.921,19.569,20.073c4.292,4.293,12.813,13.383,13.886,14.393h0.315
			l-0.631-28.342c-0.063-3.851-0.632-5.049-2.146-5.681c-0.946-0.379-2.461-0.379-3.344-0.379c-0.759,0-1.011-0.19-1.011-0.568
			c0-0.505,0.694-0.569,1.641-0.569c3.282,0,6.313,0.189,7.638,0.189c0.694,0,3.093-0.189,6.187-0.189
			c0.82,0,1.452,0.063,1.452,0.569c0,0.378-0.379,0.568-1.137,0.568c-0.63,0-1.137,0-1.894,0.189
			c-1.768,0.505-2.273,1.831-2.336,5.366l-0.694,39.83c0,1.388-0.253,1.956-0.82,1.956c-0.694,0-1.452-0.694-2.146-1.388
			c-3.976-3.787-12.057-12.056-18.621-18.558c-6.88-6.817-13.887-14.518-15.023-15.717h-0.189L357.834,67.779z"/>
	</g>
	<g>
		<path fill="#FFFFFF" d="M136.616,86.924l-9.736,28.877h-3.218l-8.457-24.628l-8.498,24.628h-3.176l-9.735-28.877h3.135
			l8.333,24.834l8.621-24.834h2.847l8.498,24.958l8.456-24.958H136.616z"/>
		<path fill="#FFFFFF" d="M166.523,113.161v2.64h-20.42V86.924h19.802v2.641h-16.749v10.271h14.933v2.599h-14.933v10.726H166.523z"
			/>
		<path fill="#FFFFFF" d="M200.206,103.364c1.031,1.224,1.547,2.798,1.547,4.724c0,2.475-0.914,4.38-2.743,5.713
			c-1.83,1.334-4.532,2.001-8.106,2.001H177.62V86.924h12.458c3.218,0,5.714,0.647,7.487,1.939c1.774,1.293,2.661,3.122,2.661,5.486
			c0,1.596-0.392,2.95-1.176,4.063c-0.784,1.114-1.863,1.946-3.238,2.496C197.71,101.322,199.174,102.141,200.206,103.364z
			 M180.672,89.441v10.478h9.201c2.336,0,4.138-0.447,5.402-1.341c1.266-0.893,1.898-2.193,1.898-3.898
			c0-1.706-0.633-3.005-1.898-3.899c-1.265-0.893-3.066-1.34-5.402-1.34H180.672z M196.72,111.965c1.319-0.88,1.98-2.255,1.98-4.125
			c0-3.603-2.613-5.404-7.839-5.404h-10.189v10.849h10.189C193.446,113.285,195.4,112.845,196.72,111.965z"/>
		<path fill="#FFFFFF" d="M247.708,101.363h2.927v11.014c-1.346,1.184-2.941,2.09-4.785,2.723c-1.842,0.633-3.78,0.949-5.815,0.949
			c-2.888,0-5.486-0.632-7.797-1.897c-2.311-1.265-4.125-3.019-5.445-5.26c-1.319-2.241-1.979-4.75-1.979-7.528
			c0-2.778,0.66-5.287,1.979-7.528c1.32-2.242,3.135-3.995,5.445-5.261c2.311-1.265,4.922-1.897,7.838-1.897
			c2.2,0,4.221,0.35,6.064,1.052c1.843,0.701,3.396,1.74,4.661,3.115l-1.897,1.938c-2.283-2.254-5.185-3.383-8.703-3.383
			c-2.339,0-4.45,0.516-6.333,1.547c-1.885,1.031-3.362,2.461-4.435,4.291c-1.073,1.829-1.609,3.871-1.609,6.125
			c0,2.255,0.536,4.29,1.609,6.106c1.072,1.815,2.544,3.245,4.414,4.29s3.973,1.567,6.312,1.567c2.97,0,5.485-0.742,7.55-2.228
			V101.363z"/>
		<path fill="#FFFFFF" d="M282.895,115.801l-6.601-9.281c-0.742,0.082-1.513,0.124-2.31,0.124h-7.757v9.158h-3.052V86.924h10.809
			c3.685,0,6.573,0.881,8.663,2.641c2.089,1.76,3.135,4.18,3.135,7.26c0,2.255-0.571,4.16-1.713,5.713
			c-1.142,1.554-2.771,2.675-4.888,3.362l7.054,9.9H282.895z M280.461,102.147c1.512-1.265,2.269-3.039,2.269-5.322
			c0-2.337-0.757-4.132-2.269-5.384c-1.513-1.251-3.699-1.876-6.56-1.876h-7.674v14.479h7.674
			C276.762,104.044,278.948,103.412,280.461,102.147z"/>
		<path fill="#FFFFFF" d="M301.769,114.13c-2.325-1.278-4.14-3.032-5.446-5.259c-1.307-2.228-1.958-4.73-1.958-7.508
			c0-2.778,0.651-5.28,1.958-7.507c1.307-2.228,3.121-3.981,5.446-5.26c2.323-1.279,4.914-1.918,7.775-1.918
			c2.86,0,5.438,0.632,7.734,1.897c2.296,1.266,4.105,3.019,5.426,5.261c1.319,2.241,1.98,4.75,1.98,7.528
			c0,2.778-0.661,5.288-1.98,7.528c-1.32,2.242-3.13,3.996-5.426,5.26c-2.296,1.265-4.874,1.897-7.734,1.897
			C306.683,116.049,304.092,115.409,301.769,114.13z M315.731,111.779c1.842-1.031,3.286-2.461,4.331-4.291
			c1.045-1.829,1.568-3.871,1.568-6.126c0-2.254-0.523-4.297-1.568-6.125c-1.045-1.829-2.489-3.259-4.331-4.291
			c-1.843-1.031-3.904-1.547-6.188-1.547s-4.353,0.516-6.209,1.547c-1.855,1.031-3.314,2.461-4.372,4.291
			c-1.06,1.829-1.588,3.871-1.588,6.125c0,2.255,0.528,4.297,1.588,6.126c1.058,1.83,2.517,3.259,4.372,4.291
			c1.856,1.031,3.926,1.547,6.209,1.547S313.889,112.81,315.731,111.779z"/>
		<path fill="#FFFFFF" d="M338.338,112.831c-2.091-2.145-3.136-5.266-3.136-9.364V86.924h3.052v16.419
			c0,3.355,0.757,5.858,2.27,7.508s3.698,2.475,6.559,2.475c2.889,0,5.088-0.825,6.601-2.475s2.27-4.152,2.27-7.508V86.924h2.97
			v16.542c0,4.099-1.037,7.22-3.114,9.364c-2.077,2.146-4.985,3.218-8.726,3.218S340.427,114.977,338.338,112.831z"/>
		<path fill="#FFFFFF" d="M391.511,89.565c2.089,1.76,3.135,4.18,3.135,7.26c0,3.081-1.046,5.493-3.135,7.24
			c-2.09,1.747-4.979,2.62-8.663,2.62h-7.755v9.117h-3.054V86.924h10.809C386.532,86.924,389.421,87.805,391.511,89.565z
			 M389.324,102.126c1.512-1.251,2.27-3.018,2.27-5.301c0-2.337-0.758-4.132-2.27-5.384c-1.513-1.251-3.699-1.876-6.559-1.876
			h-7.673v14.438h7.673C385.625,104.003,387.812,103.378,389.324,102.126z"/>
	</g>
	<g>
		<path fill="#FFFFFF" d="M24.379,101.232V58.823c0-22.657,0.191-26.717-0.138-31.369c-0.319-4.934-1.577-7.261-6.965-8.276
			c-1.306-0.289-4.007-0.436-5.478-0.436c-0.651,0-1.271-0.288-1.271-0.871c0-0.871,0.833-1.161,2.625-1.161
			c7.349,0,17.145,0.435,18.45,0.435c3.595,0,13.066-0.435,20.566-0.435c20.403,0,27.748,6.099,30.356,8.275
			c3.095,2.628,6.912,7.845,7.912,14.158c0.942-8.672,1.472-17.993,1.472-28.004c-12.983,0-37.416-5.015-45.954-10.846
			C37.417,6.125,12.983,11.14,0,11.14c0,49.065,12.55,81.655,24.691,101.517C24.692,108.777,24.379,104.929,24.379,101.232z"/>
		<path fill="#FFFFFF" d="M50.551,76.83c-0.814,0-2.601,0-3.412-0.145c-0.813,0-1.771-0.289-1.771-1.017
			c0-1.161,1.025-1.305,4.448-1.305c15.829,0,28.336-10.312,28.336-23.673c0-4.79-0.299-14.525-8.948-22.364
			c-8.655-7.841-18.229-7.26-21.977-7.26c-2.779,0-5.192,0.293-6.657,0.873c-0.982,0.285-0.19,1.304-0.19,2.756v76.536
			c0,6.765-1.084,12.938-1.015,18.209c0,2.719-0.899,6.078-2.768,9.459c5.527,6.318,9.527,9.173,9.527,9.173
			s30.865-22.811,41.878-82.566C82.382,68.628,68.324,76.83,50.551,76.83z"/>
	</g>
</g>
</svg>
