<?xml version="1.0" encoding="utf-8"?>
<!-- Generator: Adobe Illustrator 16.0.3, SVG Export Plug-In . SVG Version: 6.00 Build 0)  -->
<!DOCTYPE svg PUBLIC "-//W3C//DTD SVG 1.1//EN" "http://www.w3.org/Graphics/SVG/1.1/DTD/svg11.dtd">
<svg version="1.1" id="Layer_1" xmlns="http://www.w3.org/2000/svg" xmlns:xlink="http://www.w3.org/1999/xlink" x="0px" y="0px"
	 width="400px" height="138px" viewBox="0 0 400 138" enable-background="new 0 0 400 138" xml:space="preserve">
<g>
	<g>
		<path fill="#00121E" d="M110.487,60.267c-0.315,0-0.441,0.126-0.568,0.505l-3.408,8.648c-0.632,1.578-0.947,3.094-0.947,3.852
			c0,1.136,0.568,1.957,2.524,1.957h0.947c0.758,0,0.947,0.125,0.947,0.504c0,0.504-0.379,0.631-1.073,0.631
			c-2.02,0-4.734-0.189-6.69-0.189c-0.695,0-4.167,0.189-7.449,0.189c-0.82,0-1.199-0.127-1.199-0.631
			c0-0.379,0.252-0.504,0.758-0.504c0.568,0,1.451-0.063,1.957-0.127c2.903-0.379,4.103-2.524,5.364-5.682l15.845-39.136
			c0.757-1.831,1.136-2.525,1.768-2.525c0.567,0,0.946,0.568,1.578,2.02c1.515,3.472,11.614,28.72,15.654,38.315
			c2.397,5.682,4.229,6.564,5.555,6.881c0.947,0.188,1.893,0.252,2.651,0.252c0.505,0,0.82,0.063,0.82,0.504
			c0,0.506-0.568,0.631-2.904,0.631c-2.271,0-6.88,0-11.931-0.125c-1.135-0.063-1.893-0.063-1.893-0.506
			c0-0.379,0.252-0.504,0.883-0.567c0.442-0.126,0.885-0.695,0.569-1.452l-5.05-13.003c-0.127-0.316-0.316-0.442-0.632-0.442
			L110.487,60.267L110.487,60.267z M123.364,57.111c0.316,0,0.378-0.189,0.316-0.379l-5.682-15.528
			c-0.063-0.252-0.126-0.567-0.315-0.567s-0.315,0.315-0.379,0.567l-5.808,15.465c-0.063,0.253,0,0.442,0.253,0.442H123.364z"/>
		<path fill="#00121E" d="M166.344,58.058c0,8.08,0,12.435,1.326,13.572c1.073,0.947,2.714,1.388,7.639,1.388
			c3.345,0,5.807-0.063,7.385-1.767c0.757-0.821,1.514-2.588,1.641-3.788c0.063-0.567,0.189-0.947,0.694-0.947
			c0.442,0,0.505,0.316,0.505,1.073c0,0.694-0.441,5.429-0.946,7.259c-0.38,1.389-0.694,1.704-3.977,1.704
			c-4.545,0-7.827-0.126-10.668-0.188c-2.841-0.127-5.113-0.189-7.701-0.189c-0.694,0-2.082,0-3.598,0.063
			c-1.452,0-3.094,0.127-4.355,0.127c-0.821,0-1.263-0.189-1.263-0.631c0-0.316,0.253-0.504,1.01-0.504
			c0.947,0,1.704-0.127,2.272-0.254c1.263-0.252,1.578-1.641,1.831-3.472c0.315-2.651,0.315-7.638,0.315-13.445V46.949
			c0-9.595,0-11.362-0.126-13.382c-0.127-2.146-0.632-3.157-2.714-3.598c-0.505-0.126-1.264-0.188-2.084-0.188
			c-0.694,0-1.072-0.126-1.072-0.568s0.44-0.569,1.388-0.569c2.968,0,6.943,0.189,8.648,0.189c1.514,0,6.122-0.189,8.584-0.189
			c0.885,0,1.325,0.126,1.325,0.569c0,0.441-0.378,0.568-1.135,0.568c-0.694,0-1.705,0.063-2.463,0.188
			c-1.704,0.315-2.209,1.389-2.335,3.598c-0.127,2.02-0.127,3.787-0.127,13.382L166.344,58.058L166.344,58.058z"/>
		<path fill="#00121E" d="M206.734,60.267c-0.313,0-0.439,0.126-0.566,0.505l-3.408,8.648c-0.632,1.578-0.947,3.094-0.947,3.852
			c0,1.136,0.568,1.957,2.524,1.957h0.947c0.758,0,0.946,0.125,0.946,0.504c0,0.504-0.379,0.631-1.072,0.631
			c-2.021,0-4.734-0.189-6.691-0.189c-0.694,0-4.165,0.189-7.448,0.189c-0.82,0-1.199-0.127-1.199-0.631
			c0-0.379,0.253-0.504,0.757-0.504c0.569,0,1.452-0.063,1.958-0.127c2.902-0.379,4.102-2.524,5.365-5.682l15.843-39.136
			c0.759-1.831,1.137-2.525,1.769-2.525c0.568,0,0.945,0.568,1.577,2.02c1.517,3.472,11.614,28.72,15.654,38.315
			c2.399,5.682,4.229,6.564,5.556,6.881c0.947,0.188,1.895,0.252,2.651,0.252c0.505,0,0.821,0.063,0.821,0.504
			c0,0.506-0.57,0.631-2.905,0.631c-2.272,0-6.88,0-11.931-0.125c-1.136-0.063-1.895-0.063-1.895-0.506
			c0-0.379,0.253-0.504,0.884-0.567c0.442-0.126,0.884-0.695,0.568-1.452l-5.05-13.003c-0.127-0.316-0.315-0.442-0.631-0.442
			L206.734,60.267L206.734,60.267z M219.613,57.111c0.314,0,0.378-0.189,0.314-0.379l-5.682-15.528
			c-0.063-0.252-0.126-0.567-0.314-0.567c-0.189,0-0.316,0.315-0.379,0.567l-5.809,15.465c-0.063,0.253,0,0.442,0.253,0.442H219.613
			z"/>
		<path fill="#00121E" d="M254.703,46.949c0-9.595,0-11.362-0.126-13.382c-0.127-2.146-0.632-3.157-2.716-3.598
			c-0.504-0.126-1.578-0.188-2.461-0.188c-0.694,0-1.072-0.126-1.072-0.568s0.439-0.569,1.388-0.569
			c3.347,0,7.322,0.189,9.091,0.189c1.957,0,5.934-0.189,9.721-0.189c7.891,0,18.432,0,25.313,7.196
			c3.156,3.282,6.123,8.521,6.123,16.033c0,7.954-3.347,14.013-6.88,17.611c-2.903,2.967-9.469,7.449-21.146,7.449
			c-2.273,0-4.86-0.188-7.261-0.379c-2.397-0.188-4.608-0.378-6.186-0.378c-0.694,0-2.082,0-3.599,0.063
			c-1.451,0-3.094,0.126-4.354,0.126c-0.821,0-1.263-0.189-1.263-0.632c0-0.315,0.252-0.504,1.009-0.504
			c0.946,0,1.705-0.127,2.272-0.252c1.262-0.252,1.578-1.642,1.832-3.473c0.314-2.651,0.314-7.638,0.314-13.445V46.949z
			 M262.593,53.892c0,6.691,0.064,11.551,0.128,12.75c0.063,1.578,0.188,4.104,0.692,4.797c0.821,1.199,3.282,2.525,8.271,2.525
			c6.438,0,10.73-1.263,14.52-4.545c4.039-3.472,5.302-9.216,5.302-15.718c0-8.017-3.347-13.193-6.062-15.78
			c-5.807-5.555-13.002-6.313-17.926-6.313c-1.264,0-3.599,0.19-4.104,0.442c-0.567,0.253-0.757,0.568-0.757,1.263
			c-0.063,2.146-0.063,7.638-0.063,12.625V53.892L262.593,53.892z"/>
		<path fill="#00121E" d="M319.46,46.949c0-9.595,0-11.362-0.126-13.382c-0.127-2.146-0.759-3.22-2.146-3.535
			c-0.693-0.189-1.516-0.252-2.272-0.252c-0.63,0-1.011-0.126-1.011-0.631c0-0.379,0.506-0.505,1.517-0.505
			c2.399,0,6.375,0.189,8.205,0.189c1.579,0,5.303-0.189,7.701-0.189c0.821,0,1.325,0.126,1.325,0.505
			c0,0.505-0.379,0.631-1.01,0.631c-0.633,0-1.137,0.063-1.895,0.188c-1.704,0.315-2.209,1.389-2.335,3.598
			c-0.127,2.02-0.127,3.787-0.127,13.382v11.109c0,6.123,0,11.109,0.253,13.824c0.189,1.704,0.632,2.841,2.523,3.093
			c0.885,0.127,2.272,0.254,3.221,0.254c0.693,0,1.011,0.188,1.011,0.504c0,0.441-0.505,0.631-1.199,0.631
			c-4.167,0-8.144-0.189-9.849-0.189c-1.451,0-5.428,0.189-7.952,0.189c-0.821,0-1.263-0.189-1.263-0.631
			c0-0.316,0.252-0.504,1.009-0.504c0.946,0,1.705-0.127,2.272-0.254c1.262-0.252,1.642-1.326,1.83-3.156
			c0.316-2.651,0.316-7.637,0.316-13.76L319.46,46.949L319.46,46.949z"/>
		<path fill="#00121E" d="M357.834,67.779c0.125,4.924,0.946,6.564,2.21,7.007c1.071,0.379,2.271,0.442,3.281,0.442
			c0.694,0,1.073,0.125,1.073,0.504c0,0.504-0.567,0.631-1.453,0.631c-4.103,0-6.627-0.189-7.827-0.189
			c-0.567,0-3.534,0.189-6.816,0.189c-0.819,0-1.388-0.063-1.388-0.631c0-0.379,0.378-0.504,1.01-0.504
			c0.821,0,1.956-0.063,2.84-0.316c1.641-0.505,1.895-2.335,1.957-7.827l0.567-37.18c0-1.263,0.19-2.146,0.821-2.146
			c0.693,0,1.263,0.82,2.334,1.957c0.76,0.821,10.354,10.921,19.57,20.073c4.291,4.293,12.813,13.383,13.885,14.393h0.315
			l-0.631-28.342c-0.063-3.851-0.632-5.049-2.146-5.681c-0.946-0.379-2.461-0.379-3.345-0.379c-0.759,0-1.011-0.19-1.011-0.568
			c0-0.505,0.693-0.569,1.641-0.569c3.282,0,6.313,0.189,7.639,0.189c0.693,0,3.093-0.189,6.187-0.189
			c0.82,0,1.452,0.063,1.452,0.569c0,0.378-0.379,0.568-1.137,0.568c-0.63,0-1.138,0-1.895,0.189
			c-1.768,0.505-2.273,1.831-2.336,5.366l-0.693,39.83c0,1.388-0.254,1.956-0.82,1.956c-0.694,0-1.452-0.694-2.146-1.389
			c-3.976-3.787-12.057-12.056-18.621-18.558c-6.879-6.817-13.887-14.518-15.022-15.717h-0.188L357.834,67.779z"/>
	</g>
	<g>
		<path fill="#00121E" d="M136.616,86.924l-9.736,28.877h-3.218l-8.457-24.628l-8.498,24.628h-3.176l-9.735-28.877h3.135
			l8.333,24.834l8.621-24.834h2.847l8.498,24.958l8.456-24.958H136.616z"/>
		<path fill="#00121E" d="M166.523,113.161v2.64h-20.42V86.924h19.802v2.641h-16.749v10.271h14.933v2.6h-14.933v10.726H166.523z"/>
		<path fill="#00121E" d="M200.206,103.364c1.03,1.224,1.547,2.798,1.547,4.724c0,2.475-0.914,4.38-2.743,5.713
			c-1.83,1.334-4.532,2.001-8.106,2.001H177.62V86.924h12.458c3.218,0,5.714,0.646,7.487,1.939c1.774,1.293,2.661,3.121,2.661,5.486
			c0,1.596-0.392,2.949-1.176,4.063c-0.784,1.113-1.863,1.945-3.238,2.496C197.71,101.322,199.174,102.141,200.206,103.364z
			 M180.672,89.441v10.478h9.201c2.336,0,4.138-0.446,5.402-1.341c1.266-0.893,1.898-2.193,1.898-3.898s-0.633-3.005-1.898-3.898
			c-1.265-0.893-3.066-1.34-5.402-1.34H180.672L180.672,89.441z M196.72,111.965c1.319-0.88,1.98-2.255,1.98-4.125
			c0-3.604-2.613-5.404-7.839-5.404h-10.189v10.85h10.189C193.446,113.285,195.4,112.846,196.72,111.965z"/>
		<path fill="#00121E" d="M247.708,101.363h2.927v11.014c-1.346,1.184-2.941,2.09-4.785,2.723c-1.842,0.633-3.779,0.949-5.814,0.949
			c-2.889,0-5.486-0.632-7.797-1.896c-2.312-1.266-4.125-3.02-5.445-5.26c-1.318-2.242-1.979-4.75-1.979-7.529
			c0-2.777,0.66-5.286,1.979-7.527c1.32-2.242,3.135-3.995,5.445-5.261c2.311-1.265,4.922-1.897,7.838-1.897
			c2.199,0,4.221,0.35,6.064,1.053c1.842,0.701,3.396,1.739,4.66,3.114l-1.896,1.938c-2.283-2.254-5.186-3.383-8.703-3.383
			c-2.34,0-4.45,0.516-6.333,1.547c-1.886,1.031-3.362,2.461-4.435,4.291c-1.074,1.828-1.609,3.871-1.609,6.125
			c0,2.255,0.535,4.289,1.609,6.105c1.071,1.815,2.543,3.245,4.414,4.29c1.869,1.046,3.973,1.567,6.312,1.567
			c2.97,0,5.485-0.742,7.55-2.229L247.708,101.363L247.708,101.363z"/>
		<path fill="#00121E" d="M282.895,115.801l-6.601-9.281c-0.742,0.082-1.513,0.125-2.31,0.125h-7.758v9.157h-3.052V86.924h10.81
			c3.685,0,6.572,0.881,8.662,2.641c2.09,1.761,3.136,4.181,3.136,7.261c0,2.255-0.571,4.159-1.714,5.713
			c-1.142,1.554-2.771,2.675-4.887,3.362l7.053,9.899L282.895,115.801L282.895,115.801z M280.461,102.146
			c1.512-1.265,2.27-3.039,2.27-5.321c0-2.337-0.758-4.132-2.27-5.384c-1.513-1.252-3.699-1.877-6.561-1.877h-7.674v14.479h7.674
			C276.762,104.044,278.948,103.412,280.461,102.146z"/>
		<path fill="#00121E" d="M301.77,114.13c-2.326-1.278-4.141-3.032-5.446-5.259c-1.308-2.229-1.958-4.73-1.958-7.508
			c0-2.778,0.65-5.28,1.958-7.508c1.307-2.228,3.12-3.98,5.446-5.26c2.322-1.279,4.914-1.918,7.774-1.918s5.438,0.633,7.733,1.897
			c2.297,1.266,4.105,3.019,5.427,5.261c1.319,2.241,1.979,4.75,1.979,7.527c0,2.779-0.66,5.289-1.979,7.529
			c-1.32,2.241-3.13,3.996-5.427,5.26c-2.295,1.265-4.873,1.896-7.733,1.896S304.092,115.409,301.77,114.13z M315.73,111.779
			c1.843-1.031,3.287-2.461,4.332-4.291c1.045-1.829,1.567-3.871,1.567-6.127c0-2.254-0.522-4.297-1.567-6.125
			s-2.49-3.258-4.332-4.291c-1.842-1.03-3.903-1.547-6.188-1.547s-4.354,0.517-6.209,1.547c-1.855,1.031-3.314,2.462-4.372,4.291
			c-1.06,1.83-1.588,3.871-1.588,6.125c0,2.256,0.528,4.298,1.588,6.127c1.058,1.83,2.517,3.259,4.372,4.291
			c1.855,1.031,3.926,1.547,6.209,1.547S313.889,112.811,315.73,111.779z"/>
		<path fill="#00121E" d="M338.338,112.831c-2.091-2.146-3.136-5.267-3.136-9.364V86.924h3.052v16.419
			c0,3.355,0.758,5.858,2.27,7.509c1.514,1.649,3.699,2.475,6.56,2.475c2.89,0,5.088-0.825,6.601-2.475
			c1.514-1.65,2.271-4.152,2.271-7.509V86.924h2.97v16.542c0,4.099-1.037,7.22-3.113,9.364c-2.078,2.146-4.985,3.218-8.727,3.218
			S340.427,114.977,338.338,112.831z"/>
		<path fill="#00121E" d="M391.511,89.564c2.089,1.761,3.136,4.181,3.136,7.261c0,3.081-1.047,5.493-3.136,7.239
			c-2.09,1.748-4.979,2.621-8.663,2.621h-7.755v9.116h-3.054V86.924h10.809C386.532,86.924,389.421,87.805,391.511,89.564z
			 M389.324,102.126c1.512-1.251,2.27-3.019,2.27-5.301c0-2.337-0.758-4.132-2.27-5.384c-1.514-1.252-3.699-1.877-6.559-1.877
			h-7.674v14.438h7.674C385.625,104.003,387.813,103.378,389.324,102.126z"/>
	</g>
	<g>
		<path fill="#00121E" d="M24.379,101.232V58.823c0-22.657,0.191-26.717-0.138-31.369c-0.319-4.934-1.577-7.261-6.965-8.276
			c-1.306-0.289-4.007-0.436-5.478-0.436c-0.651,0-1.271-0.288-1.271-0.871c0-0.871,0.833-1.161,2.625-1.161
			c7.349,0,17.145,0.435,18.45,0.435c3.595,0,13.066-0.435,20.566-0.435c20.403,0,27.748,6.099,30.356,8.275
			c3.095,2.628,6.912,7.845,7.912,14.158c0.942-8.672,1.472-17.993,1.472-28.004c-12.983,0-37.416-5.015-45.954-10.846
			C37.417,6.125,12.983,11.14,0,11.14c0,49.065,12.55,81.655,24.691,101.517C24.692,108.777,24.379,104.93,24.379,101.232z"/>
		<path fill="#00121E" d="M50.551,76.83c-0.814,0-2.601,0-3.412-0.145c-0.813,0-1.771-0.289-1.771-1.018
			c0-1.161,1.025-1.305,4.448-1.305c15.829,0,28.336-10.313,28.336-23.673c0-4.79-0.299-14.525-8.948-22.364
			c-8.655-7.841-18.229-7.26-21.977-7.26c-2.779,0-5.192,0.293-6.657,0.873c-0.982,0.285-0.19,1.304-0.19,2.756v76.536
			c0,6.766-1.084,12.938-1.015,18.209c0,2.72-0.899,6.078-2.768,9.459c5.527,6.318,9.527,9.174,9.527,9.174
			s30.865-22.811,41.878-82.566C82.382,68.628,68.324,76.83,50.551,76.83z"/>
	</g>
</g>
</svg>
